<?xml version="1.0" standalone="no"?>
<!DOCTYPE svg PUBLIC "-//W3C//DTD SVG 20010904//EN"
 "http://www.w3.org/TR/2001/REC-SVG-20010904/DTD/svg10.dtd">
<svg version="1.0" xmlns="http://www.w3.org/2000/svg"
 width="120.000000pt" height="40.000000pt" viewBox="0 0 120.000000 40.000000"
 preserveAspectRatio="xMidYMid meet">

<g transform="translate(0.000000,40.000000) scale(0.100000,-0.100000)"
fill="#000000" stroke="none">
<path d="M206 334 c-21 -21 -20 -47 3 -68 41 -37 97 14 66 60 -18 28 -46 31
-69 8z"/>
<path d="M114 273 c-11 -17 -18 -47 -18 -74 0 -81 61 -139 145 -139 105 0 169
108 123 206 -9 19 -20 34 -25 34 -17 0 -18 -19 -3 -50 49 -98 -56 -197 -154
-146 -53 27 -72 106 -38 158 15 23 13 38 -5 38 -3 0 -15 -12 -25 -27z"/>
<path d="M450 205 l0 -65 30 0 c33 0 80 38 80 63 0 8 -9 26 -21 41 -15 19 -30
26 -55 26 l-34 0 0 -65z m70 -16 c-17 -32 -40 -23 -40 14 0 44 11 53 32 27 13
-17 15 -27 8 -41z"/>
<path d="M570 205 l0 -65 41 0 c43 0 52 22 11 28 -28 4 -29 22 -2 22 11 0 20
7 20 15 0 8 -9 15 -20 15 -11 0 -20 7 -20 15 0 9 9 15 25 15 14 0 25 5 25 10
0 6 -18 10 -40 10 l-40 0 0 -65z"/>
<path d="M682 258 c-19 -19 -14 -35 15 -56 30 -22 24 -49 -7 -32 -23 12 -40
-7 -19 -21 27 -17 68 -10 80 13 10 19 8 25 -20 48 -36 31 -39 42 -9 38 11 -2
23 3 25 10 6 16 -49 16 -65 0z"/>
<path d="M770 205 c0 -51 3 -65 15 -65 12 0 15 14 15 65 0 51 -3 65 -15 65
-12 0 -15 -14 -15 -65z"/>
<path d="M836 254 c-22 -21 -20 -77 2 -97 24 -22 65 -21 85 1 27 30 22 52 -13
52 -16 0 -30 -4 -30 -10 0 -5 7 -10 16 -10 13 0 14 -3 4 -15 -9 -11 -17 -12
-31 -4 -37 20 -12 90 27 75 22 -8 40 4 23 15 -22 14 -66 10 -83 -7z"/>
<path d="M960 205 c0 -37 4 -65 10 -65 6 0 10 16 10 35 0 44 9 44 38 0 36 -56
52 -47 52 30 0 50 -3 65 -14 65 -10 0 -16 -13 -18 -37 l-3 -38 -24 38 c-36 57
-51 49 -51 -28z"/>
<path d="M162 229 c-10 -41 2 -85 28 -99 25 -13 40 -12 17 1 -9 6 -15 15 -11
20 3 5 0 8 -7 7 -7 -2 -14 6 -16 17 -4 17 -2 18 7 5 10 -12 11 -12 5 5 -16 43
-17 55 -6 55 6 0 8 -7 4 -17 -5 -12 -2 -15 10 -10 13 5 17 -2 20 -36 l4 -42 1
41 c2 31 -3 46 -22 63 l-25 23 -9 -33z"/>
<path d="M277 242 c-18 -20 -25 -122 -8 -122 17 0 51 52 51 79 0 15 -6 35 -13
45 -12 16 -14 16 -30 -2z m33 -43 c0 -15 -9 -37 -20 -50 l-19 -24 -1 51 c0 52
17 85 32 61 4 -6 8 -24 8 -38z"/>
<path d="M283 174 c0 -23 1 -24 9 -10 7 12 7 21 0 28 -6 6 -9 0 -9 -18z"/>
</g>
</svg>
